:SAMPLES-PER-SECOND 30
:FULLY-SPECIFIED
:DEGREES
33
root  3.82631 39.7638 -0.599894 67.0836 -84.9496 -72.9477
RightUpLeg  2.0784 -6.403 -0.168675
RightLeg  9.15426 -5.53589 -0.651805
RightFoot  -2.93071 -0.507989 6.62934
RightToes  7.56698e-010 0 -3.6325e-017
Spine  4.47933 -0.384807 4.54862
Spine1  10.673 -1.74754 7.05096
HEad  8.52907 41.2279 2.73771
LeftShoulder1  2.29547 -5.14739 -20.0901
LeftArm  -6.09688 12.1571 -51.7398
LeftForeArm  22.0301 -0.571154 -14.4376
LeftHand  -0.786315 -0.266732 16.2028
RightShoulder  1.38425 2.18209 17.8307
RightArm  -3.20486 3.06724 59.667
RightForeArm  12.6895 59.7224 18.5037
RightHand  -1.07649 5.9519 -11.2992
LeftUpLeg  -5.93052 0.267152 13.9965
LeftLeg  24.133 9.7298 5.05862
LeftFoot  -2.77492 1.09383 -14.3224
LeftToes  -3.13779e-010 -2.47553e-011 -5.36621e-011
34
root  3.80478 39.6957 -0.83466 49.8477 -83.8747 -55.3908
RightUpLeg  1.96074 -6.94716 0.0608904
RightLeg  9.38536 -6.9515 -0.339321
RightFoot  -3.3836 -0.478146 6.53526
RightToes  7.56698e-010 0 -3.6325e-017
Spine  4.16489 -0.484163 5.20414
Spine1  10.3594 -1.80443 7.33199
HEad  7.97137 40.7079 2.58864
LeftShoulder1  2.25549 -5.13845 -19.6238
LeftArm  -5.655 12.5865 -52.6346
LeftForeArm  19.6617 -2.00412 -14.3601
LeftHand  -0.726448 -0.152182 15.2882
RightShoulder  1.37689 2.08416 18.1524
RightArm  -5.10718 1.27294 59.1004
RightForeArm  15.7969 64.5811 23.0356
RightHand  -0.958906 5.45559 -10.5389
LeftUpLeg  -7.90131 -0.422628 14.6357
LeftLeg  25.8203 8.16977 4.61077
LeftFoot  -2.08664 1.25586 -15.2906
LeftToes  -3.13779e-010 -2.47553e-011 -5.36621e-011
35
root  3.81724 39.6515 -1.03518 39.7958 -82.7064 -45.0215
RightUpLeg  1.63438 -7.11741 0.369645
RightLeg  9.7415 -8.39167 -0.381178
RightFoot  -3.6881 -0.462003 6.52466
RightToes  7.56698e-010 0 -3.6325e-017
Spine  4.11233 -0.501622 6.22542
Spine1  9.84032 -1.58904 6.77303
HEad  6.52366 40.5017 1.65062
LeftShoulder1  2.27082 -5.21862 -19.5542
LeftArm  -4.27825 12.6892 -53.257
LeftForeArm  17.3901 -3.79654 -14.2491
LeftHand  -0.68997 0.115838 15.2432
RightShoulder  1.3542 1.97278 18.2479
RightArm  -6.56976 -0.454573 59.0625
RightForeArm  20.3199 68.8268 28.7101
RightHand  -0.848743 4.85317 -9.89145
LeftUpLeg  -9.33717 -0.899481 15.0544
LeftLeg  26.6133 7.02163 4.13966
LeftFoot  -1.52607 1.36465 -15.7078
LeftToes  -3.13779e-010 -2.47553e-011 -5.36621e-011
36
root  3.86344 39.6604 -1.21619 33.0604 -81.9646 -38.1843
RightUpLeg  1.40026 -7.01528 0.516159
RightLeg  10.0763 -9.6036 -0.737576
RightFoot  -3.8068 -0.453713 6.48405
RightToes  7.56698e-010 0 -3.6325e-017
Spine  4.28989 -0.407878 6.94001
Spine1  9.51515 -1.22341 5.85754
HEad  4.51417 40.5438 0.262369
LeftShoulder1  2.30609 -5.22623 -19.9649
LeftArm  -2.34506 12.309 -53.6805
LeftForeArm  14.2193 -5.56065 -14.1105
LeftHand  -0.645558 0.724855 16.0882
RightShoulder  1.33934 1.93373 18.1448
RightArm  -7.00096 -1.16336 59.2258
RightForeArm  24.3281 71.1656 33.016
RightHand  -0.828779 4.4905 -9.99554
LeftUpLeg  -9.75546 -1.13781 15.0533
LeftLeg  26.1951 6.35189 3.71783
LeftFoot  -0.961718 1.43618 -15.6695
LeftToes  -3.13779e-010 -2.47553e-011 -5.36621e-011
37
root  3.90698 39.7225 -1.38035 25.5316 -81.6144 -30.7258
RightUpLeg  1.41413 -6.94633 0.177318
RightLeg  10.2582 -10.491 -1.20532
RightFoot  -3.7956 -0.447972 6.37545
RightToes  7.56698e-010 0 -3.6325e-017
Spine  4.45319 -0.318365 6.80559
Spine1  9.43371 -0.930997 5.03176
HEad  2.80731 40.7519 -0.806465
LeftShoulder1  2.31377 -5.11625 -20.4199
LeftArm  -1.26104 11.6421 -54.2797
LeftForeArm  10.8029 -6.58395 -14.0111
LeftHand  -0.568052 1.60778 17.3656
RightShoulder  1.34021 1.971 17.9794
RightArm  -6.20253 -0.620596 59.3269
RightForeArm  24.6405 70.9509 32.5004
RightHand  -0.90187 4.53818 -10.7973
LeftUpLeg  -9.14566 -1.49104 14.4365
LeftLeg  24.5034 6.17027 3.3877
LeftFoot  -0.368132 1.49794 -15.4943
LeftToes  -3.13779e-010 -2.47553e-011 -5.36621e-011
